<svg xmlns="http://www.w3.org/2000/svg" xmlns:xlink="http://www.w3.org/1999/xlink" version="1.1" id="Calque_1" x="0px" y="0px" viewBox="0 0 37 37.3" style="enable-background:new 0 0 37 37.3;" xml:space="preserve">
<style type="text/css">
	.st0{fill:#fff;}
</style>
<g>
	<path class="st0" d="M18.4,22.5c2.3,0,4.1-1.8,4.1-4.1s-1.8-4.1-4.1-4.1s-4.1,1.8-4.1,4.1S16.1,22.5,18.4,22.5z M18.4,15.9   c1.4,0,2.5,1.1,2.5,2.5s-1.1,2.5-2.5,2.5s-2.5-1.1-2.5-2.5C15.9,17.1,17,15.9,18.4,15.9z"/>
	<path class="st0" d="M35.8,17.6h-3C32.4,10.3,26.5,4.4,19.2,4V1c0-0.4-0.4-0.8-0.8-0.8S17.6,0.6,17.6,1v3.7c0,0.4,0.4,0.8,0.8,0.8   c7,0,12.8,5.7,12.8,12.8s-5.7,12.8-12.8,12.8c-7,0-12.8-5.7-12.8-12.8c0-4.9,2.9-9.4,7.3-11.6c0.4-0.2,0.6-0.7,0.4-1.1   c-0.2-0.4-0.7-0.6-1.1-0.4c-4.8,2.3-7.9,7-8.2,12.2H1c-0.4,0-0.8,0.4-0.8,0.8S0.6,19,1,19h3c0.4,7.3,6.3,13.2,13.6,13.6v3.1   c0,0.4,0.4,0.8,0.8,0.8s0.8-0.4,0.8-0.8v-3.1c7.3-0.4,13.2-6.3,13.6-13.6h3c0.4,0,0.8-0.4,0.8-0.8S36.2,17.6,35.8,17.6z"/>
</g>
</svg>