<?xml version="1.0" encoding="utf-8"?>
<!-- Generator: Adobe Illustrator 21.0.2, SVG Export Plug-In . SVG Version: 6.00 Build 0)  -->
<svg version="1.1" id="Calque_1" xmlns="http://www.w3.org/2000/svg" xmlns:xlink="http://www.w3.org/1999/xlink" x="0px" y="0px"
	 viewBox="0 0 52.3 49.4" style="enable-background:new 0 0 52.3 49.4;" xml:space="preserve">
<style type="text/css">
	.st0{fill:#732282;}
</style>
<path class="st0" d="M34.7,0.7c-0.2-0.5-0.5-0.6-1.1-0.4l-1.7,0.6c-2.3,0.8-4.3,2.6-6,4.2C18,12.6,6.6,31.9,0.8,46.4
	c-0.4,1-0.5,1.5-0.5,1.7c0,0.8,0.7,1.1,2,0.9c5.1-12.4,16-34.1,25.9-43l1.4-1.2h0.2v0.7c0,2.3-0.5,7.5-1.3,11.9
	c-1.1,5.7-2.6,12.5-3.1,14.8c-0.6,2.8-0.9,5.4-0.9,6c0,0.7,0.2,0.9,1,0.8c1.3-0.2,3.1-1,3.7-1.5c0.6-0.5,1.3-1.1,2.5-3.6
	c1.7-3.6,6.4-13.8,11.9-20.6l0.8-1h0.2l-0.2,1.3c-0.3,2.1-0.7,5-0.7,8.6c0,4.8,0.4,10,1.7,13.3c0.9,2.3,2.1,3.3,3.5,3.3
	c1.2,0,2.2-0.6,3.1-1.7c-2.1-3-3.2-9.6-3.2-15.8c0-3.4,0.1-6.4,0.5-9c0.1-0.7,0.4-2.6,0.4-3.6c0-0.6-0.1-1-0.7-0.9
	c-0.6,0-2.3,0.6-2.9,0.9c-1.8,0.8-2.9,1.8-5.4,5c-2.2,2.8-6.9,10.3-11.3,20h-0.2l1.3-5.2c3-11.6,4.7-19.4,4.7-24.4
	C35.2,2.2,34.8,1,34.7,0.7"/>
</svg>
