<?xml version="1.0" encoding="utf-8"?>
<!-- Generator: Adobe Illustrator 21.0.2, SVG Export Plug-In . SVG Version: 6.00 Build 0)  -->
<svg version="1.1" id="Calque_1" xmlns="http://www.w3.org/2000/svg" xmlns:xlink="http://www.w3.org/1999/xlink" x="0px" y="0px"
	 viewBox="0 0 143.5 42" style="enable-background:new 0 0 143.5 42;" xml:space="preserve">
<style type="text/css">
	.st0{fill:#712A81;}
</style>
<g>
	<g>
		<path class="st0" d="M59.1,33.9h-1v6.8H59v-2.8h0.5c1.3,0,2.4-0.5,2.4-2C61.8,34.6,61.2,33.9,59.1,33.9z M59.2,37.1H59v-2.4h0.2
			c0.8,0,1.8,0.1,1.8,1.2C61,36.9,60.1,37.1,59.2,37.1z M63.6,40.7h0.9l0.8-1.7h3.1l0.8,1.7H70l-3.2-7.1L63.6,40.7z M65.6,38.2
			l1.2-2.7l1.2,2.7H65.6z M76.5,35.8c0-0.6-0.3-1.3-0.9-1.6c-0.5-0.3-1.2-0.3-1.8-0.3h-1v6.8h0.8v-2.9H74l2,2.9h1l-2.1-3
			C75.9,37.6,76.5,36.8,76.5,35.8z M74,37.1h-0.3v-2.5h0.2c0.8,0,1.8,0.2,1.8,1.2C75.8,37,74.8,37.1,74,37.1z M80.5,40.7h0.8v-6.8
			h-0.8V40.7z M87.3,36.7l-0.5-0.2c-0.4-0.2-0.9-0.4-0.9-1c0-0.6,0.6-1,1.1-1c0.5,0,0.8,0.2,1.1,0.6l0.7-0.4c-0.4-0.7-1-1-1.7-1
			c-1,0-2,0.7-2,1.8c0,0.9,0.7,1.4,1.5,1.7l0.5,0.2c0.6,0.2,1.2,0.6,1.2,1.3c0,0.7-0.5,1.3-1.2,1.3c-0.7,0-1.3-0.5-1.3-1.3l-0.9,0.2
			c0.1,1.1,1,1.9,2.1,1.9c1.2,0,2.2-0.9,2.2-2.1C89,37.6,88.3,37.1,87.3,36.7z M31.4,9.9c0.1-0.5,0.2-1.7,0.2-2.3
			c0-0.4,0-0.7-0.4-0.6c-0.4,0-1.4,0.4-1.8,0.6c-1.2,0.5-1.9,1.2-3.4,3.2c-1.4,1.8-4.5,6.6-7.3,12.9h-0.1l0.8-3.3
			c1.9-7.4,3-12.4,3-15.7c0-1.5-0.3-2.3-0.3-2.5c-0.2-0.3-0.4-0.4-0.7-0.2l-1.1,0.4C18.8,2.8,17.5,4,16.4,5
			C11.4,9.8,4,22.2,0.3,31.6C0.1,32.2,0,32.5,0,32.7c0,0.5,0.5,0.7,1.3,0.6c3.3-8,10.3-21.9,16.6-27.6l0.9-0.8H19v0.4
			c0,1.5-0.3,4.9-0.9,7.7c-0.7,3.7-1.7,8-2,9.5c-0.4,1.8-0.6,3.4-0.6,3.9c0,0.5,0.1,0.6,0.7,0.5c0.8-0.1,2-0.6,2.4-0.9
			c0.4-0.3,0.8-0.7,1.6-2.3c1.1-2.3,4.1-8.9,7.7-13.2l0.5-0.7h0.1l-0.1,0.8c-0.2,1.4-0.4,3.2-0.4,5.5c0,3.1,0.3,6.5,1.1,8.5
			c0.6,1.5,1.3,2.1,2.2,2.1c0.8,0,1.4-0.4,2-1.1c-1.3-1.9-2.1-6.2-2.1-10.1C31.1,13.5,31.2,11.5,31.4,9.9z M40.5,13.9
			c-1.5,0-3.1,0.3-4.2,0.8v2.1c1.2-0.7,2.7-0.9,3.8-0.9c2.1,0,3.1,0.7,3.1,2.8v0.3l-3.6,0.4c-3.5,0.4-4.3,1.8-4.3,3.3
			c0,3,2.7,3.6,5,3.6c1.9,0,3.9-0.2,5.4-0.5v-7.2C45.7,16.1,44.6,13.9,40.5,13.9z M43.3,24.2c-0.9,0.1-1.6,0.2-2.3,0.2
			c-2.2,0-3-0.7-3-1.8c0-1.1,0.8-1.5,2.7-1.8l2.7-0.3V24.2z M48.3,15V26h2.5v-9.8c0.9-0.3,1.6-0.4,2.6-0.4c1,0,1.6,0.1,2.4,0.3v-2
			c-0.6-0.2-1.5-0.2-2-0.2C51.1,13.9,49.5,14.5,48.3,15z M68.6,26.1c4.1,0,6.5-2.6,6.5-6.2c0-3.4-2.4-6.1-6.3-6.1
			c-4.1,0-6.6,2.5-6.6,6.2C62.2,23.4,64.7,26.1,68.6,26.1z M68.5,15.8c2.7,0,4.1,1.6,4.1,4.3c0,3.1-2.1,4.2-3.8,4.2
			c-2.7,0-4.1-1.6-4.1-4.3C64.7,16.8,66.7,15.8,68.5,15.8z M85.9,19.1V26h2.4v-7c0-3.8-1.7-5-5.6-5c-1.9,0-4.3,0.5-5.5,1.1v11h2.5
			v-9.7c0.9-0.3,1.7-0.5,2.6-0.5C84.4,15.8,85.9,16.3,85.9,19.1z M96.5,13.9c-1.9,0-4.3,0.5-5.5,1.1v11h2.4v-9.7
			c0.9-0.3,1.8-0.5,2.7-0.5c2.1,0,3.6,0.6,3.6,3.3V26h2.4v-7C102.1,15.1,100.3,13.9,96.5,13.9z M139.6,7.5v6.8
			c-0.7-0.3-1.7-0.5-2.9-0.5c-3.6,0-6.8,2-6.8,6.4c0,3.7,2.6,5.9,7,5.9c1.7,0,3.3-0.2,5.1-0.6v-18H139.6z M139.6,23.9
			c-0.9,0.2-1.7,0.3-2.5,0.3c-2.6,0-4.7-1.2-4.7-4.2c0-3.6,2.5-4.2,4.5-4.2c1,0,1.8,0.2,2.7,0.5V23.9z M109.3,13.9
			c-1.5,0-3.1,0.3-4.2,0.8v2.1c1.2-0.7,2.7-0.9,3.8-0.9c2.1,0,3.1,0.7,3.1,2.8v0.3l-3.6,0.4c-3.5,0.4-4.3,1.8-4.3,3.3
			c0,3,2.7,3.6,5,3.6c1.9,0,3.9-0.2,5.4-0.5v-7.2C114.5,16.1,113.4,13.9,109.3,13.9z M112.1,24.2c-0.9,0.1-1.6,0.2-2.3,0.2
			c-2.2,0-3-0.7-3-1.8c0-1.1,0.8-1.5,2.7-1.8l2.7-0.3V24.2z M60.1,14.1h-2.5V26h2.5L60.1,14.1z M60,9h-2.4v2.3H60V9z M125.3,23.8
			c-0.9,0.3-1.7,0.5-2.6,0.5c-2.1,0-3.5-0.6-3.5-3.3v-6.9h-2.4v7c0,3.8,1.7,5,5.5,5c1.9,0,4.2-0.5,5.4-1.1v-11h-2.5V23.8z"/>
	</g>
</g>
</svg>
