<?xml version="1.0" encoding="utf-8"?>
<!-- Generator: Adobe Illustrator 21.0.2, SVG Export Plug-In . SVG Version: 6.00 Build 0)  -->
<svg version="1.1" id="Calque_1" xmlns="http://www.w3.org/2000/svg" xmlns:xlink="http://www.w3.org/1999/xlink" x="0px" y="0px"
	 viewBox="0 0 283.5 102" style="enable-background:new 0 0 283.5 102;" xml:space="preserve">
<style type="text/css">
	.st0{fill:#732282;}
	.st1{fill:#FFFFFF;}
</style>
<rect class="st0" width="283.5" height="102"/>
<path class="st1" d="M119.3,84.7H118V74.2h1.5c3.2,0,4.3,1.1,4.3,3.1c0,2.2-1.7,3.1-3.7,3.1h-0.8V84.7z M119.3,79.1h0.4
	c1.3,0,2.8-0.3,2.8-1.9c0-1.7-1.6-1.8-2.9-1.8h-0.4V79.1z"/>
<path class="st1" d="M129.1,82.1l-1.2,2.6h-1.4l5-11l5,11h-1.4l-1.2-2.6H129.1z M131.5,76.6l-1.9,4.3h3.8L131.5,76.6z"/>
<path class="st1" d="M147.5,84.7h-1.6l-3.1-4.5h-0.5v4.5h-1.3V74.2h1.6c0.9,0,1.9,0,2.8,0.5c0.9,0.5,1.4,1.5,1.4,2.5
	c0,1.5-1,2.8-2.5,3L147.5,84.7z M142.2,79.2h0.4c1.3,0,2.8-0.3,2.8-1.9c0-1.7-1.6-1.9-2.9-1.9h-0.4V79.2z"/>
<rect x="152.8" y="74.2" class="st1" width="1.3" height="10.6"/>
<path class="st1" d="M164.7,76.2c-0.4-0.7-0.9-1-1.7-1c-0.8,0-1.8,0.6-1.8,1.5c0,0.8,0.8,1.3,1.5,1.5l0.8,0.3
	c1.5,0.6,2.6,1.4,2.6,3.2c0,1.9-1.5,3.3-3.4,3.3c-1.7,0-3-1.3-3.3-3l1.3-0.3c0,1.2,0.9,2,2,2c1.1,0,1.9-1,1.9-2.1
	c0-1.1-0.9-1.6-1.8-2l-0.7-0.3c-1.2-0.5-2.3-1.2-2.3-2.7c0-1.7,1.5-2.7,3.1-2.7c1.2,0,2.1,0.6,2.7,1.6L164.7,76.2z"/>
<path class="st1" d="M61.9,24.8c-0.2-0.5-0.5-0.6-1.1-0.4L59.1,25c-2.3,0.8-4.3,2.6-6,4.2C45.2,36.7,33.8,56,28,70.5
	c-0.4,1-0.5,1.5-0.5,1.7c0,0.8,0.7,1.1,2,0.9c5.1-12.4,16-34.1,25.9-43l1.4-1.2H57v0.7c0,2.3-0.5,7.5-1.3,11.9
	c-1.1,5.7-2.6,12.5-3.1,14.8c-0.6,2.8-0.9,5.4-0.9,6c0,0.7,0.2,0.9,1,0.8c1.3-0.2,3.1-1,3.7-1.5c0.6-0.5,1.3-1.1,2.5-3.6
	c1.7-3.6,6.4-13.8,11.9-20.6l0.8-1h0.2l-0.2,1.3c-0.3,2.1-0.7,5-0.7,8.6c0,4.8,0.4,10,1.7,13.3c0.9,2.3,2.1,3.3,3.5,3.3
	c1.2,0,2.2-0.6,3.1-1.7c-2.1-3-3.2-9.6-3.2-15.8c0-3.4,0.1-6.4,0.5-9c0.1-0.7,0.4-2.6,0.4-3.6c0-0.6-0.1-1-0.7-0.9
	c-0.6,0-2.3,0.6-2.9,0.9c-1.8,0.8-2.9,1.8-5.4,5c-2.2,2.8-6.9,10.3-11.3,20h-0.2l1.3-5.2c3-11.6,4.7-19.4,4.7-24.4
	C62.4,26.3,62,25.1,61.9,24.8"/>
<path class="st1" d="M84.1,44.2c1.6-0.8,4.2-1.2,6.5-1.2c6.3,0,8.1,3.5,8.1,7.2v11.2c-2.3,0.4-5.4,0.7-8.3,0.7
	c-3.6,0-7.8-0.9-7.8-5.5c0-2.4,1.3-4.5,6.8-5.2l5.6-0.7v-0.4c0-3.2-1.6-4.3-4.9-4.3c-1.8,0-4.1,0.4-5.9,1.5V44.2z M94.9,59.1v-5.8
	l-4.2,0.5c-2.9,0.3-4.2,1.1-4.2,2.7c0,1.8,1.3,2.9,4.7,2.9C92.4,59.4,93.5,59.3,94.9,59.1"/>
<path class="st1" d="M111,43c0.8,0,2.2,0,3.2,0.3v3.1c-1.2-0.2-2-0.4-3.7-0.4c-1.5,0-2.6,0.2-4,0.7v15.2h-3.8v-17
	C104.6,43.9,107,43,111,43"/>
<path class="st1" d="M134.6,43c6.1,0,9.8,4.2,9.8,9.5c0,5.7-3.8,9.7-10.2,9.7c-6.1,0-10-4.2-10-9.5C124.3,46.9,128.2,43,134.6,43
	 M128.2,52.4c0,4.1,2.2,6.7,6.4,6.7c2.7,0,6-1.6,6-6.5c0-4.1-2.2-6.7-6.4-6.7C131.4,46,128.2,47.6,128.2,52.4"/>
<path class="st1" d="M156.3,43c6,0,8.7,1.9,8.7,7.9v11h-3.8V51.1c0-4.2-2.3-5.1-5.6-5.1c-1.4,0-2.7,0.3-4.1,0.7v15.1h-3.8V44.7
	C149.6,43.8,153.3,43,156.3,43"/>
<path class="st1" d="M177.7,43c6,0,8.7,1.9,8.7,7.9v11h-3.8V51.1c0-4.2-2.2-5.1-5.6-5.1c-1.4,0-2.8,0.3-4.2,0.7v15.1h-3.8V44.7
	C171,43.8,174.7,43,177.7,43"/>
<path class="st1" d="M240.6,62.1c-6.9,0-10.9-3.5-10.9-9.2c0-6.8,4.9-9.9,10.6-9.9c1.9,0,3.3,0.3,4.5,0.8V33.2h3.8v28
	C245.8,61.8,243.3,62.1,240.6,62.1 M244.8,58.6V46.7c-1.3-0.5-2.6-0.8-4.1-0.8c-3.1,0-7,0.9-7,6.5c0,4.8,3.2,6.6,7.3,6.6
	C242.2,59.1,243.4,58.9,244.8,58.6"/>
<path class="st1" d="M202,59.1v-5.8l-4.2,0.5c-2.9,0.3-4.2,1.1-4.2,2.7c0,1.8,1.3,2.9,4.7,2.9C199.5,59.4,200.6,59.3,202,59.1
	 M191.2,44.2c1.7-0.8,4.2-1.2,6.5-1.2c6.3,0,8.1,3.5,8.1,7.2v11.2c-2.3,0.4-5.3,0.7-8.3,0.7c-3.7,0-7.8-0.9-7.8-5.5
	c0-2.4,1.3-4.5,6.8-5.2l5.6-0.7v-0.4c0-3.2-1.6-4.3-4.9-4.3c-1.8,0-4.1,0.4-5.9,1.5V44.2z"/>
<rect x="117.2" y="43.3" class="st1" width="3.8" height="18.5"/>
<rect x="117.2" y="35.5" class="st1" width="3.8" height="3.6"/>
<path class="st1" d="M218,62.1c-6,0-8.6-1.9-8.6-7.9v-11h3.8V54c0,4.2,2.2,5.1,5.5,5.1c1.4,0,2.6-0.3,4-0.7V43.3h3.8v17.1
	C224.5,61.4,221,62.1,218,62.1"/>
</svg>
